<svg xmlns:xlink="http://www.w3.org/1999/xlink" width="53.164ex" height="4.009ex" style="font-size: 15px; vertical-align: -1.005ex;" viewBox="0 -1293.7 22890.2 1726.2" role="img" focusable="false" xmlns="http://www.w3.org/2000/svg">
<defs>
<path stroke-width="1" id="E1-MJMAIN-66" d="M273 0Q255 3 146 3Q43 3 34 0H26V46H42Q70 46 91 49Q99 52 103 60Q104 62 104 224V385H33V431H104V497L105 564L107 574Q126 639 171 668T266 704Q267 704 275 704T289 705Q330 702 351 679T372 627Q372 604 358 590T321 576T284 590T270 627Q270 647 288 667H284Q280 668 273 668Q245 668 223 647T189 592Q183 572 182 497V431H293V385H185V225Q185 63 186 61T189 57T194 54T199 51T206 49T213 48T222 47T231 47T241 46T251 46H282V0H273Z"></path>
<path stroke-width="1" id="E1-MJMAIN-6F" d="M28 214Q28 309 93 378T250 448Q340 448 405 380T471 215Q471 120 407 55T250 -10Q153 -10 91 57T28 214ZM250 30Q372 30 372 193V225V250Q372 272 371 288T364 326T348 362T317 390T268 410Q263 411 252 411Q222 411 195 399Q152 377 139 338T126 246V226Q126 130 145 91Q177 30 250 30Z"></path>
<path stroke-width="1" id="E1-MJMAIN-72" d="M36 46H50Q89 46 97 60V68Q97 77 97 91T98 122T98 161T98 203Q98 234 98 269T98 328L97 351Q94 370 83 376T38 385H20V408Q20 431 22 431L32 432Q42 433 60 434T96 436Q112 437 131 438T160 441T171 442H174V373Q213 441 271 441H277Q322 441 343 419T364 373Q364 352 351 337T313 322Q288 322 276 338T263 372Q263 381 265 388T270 400T273 405Q271 407 250 401Q234 393 226 386Q179 341 179 207V154Q179 141 179 127T179 101T180 81T180 66V61Q181 59 183 57T188 54T193 51T200 49T207 48T216 47T225 47T235 46T245 46H276V0H267Q249 3 140 3Q37 3 28 0H20V46H36Z"></path>
<path stroke-width="1" id="E1-MJMATHI-74" d="M26 385Q19 392 19 395Q19 399 22 411T27 425Q29 430 36 430T87 431H140L159 511Q162 522 166 540T173 566T179 586T187 603T197 615T211 624T229 626Q247 625 254 615T261 596Q261 589 252 549T232 470L222 433Q222 431 272 431H323Q330 424 330 420Q330 398 317 385H210L174 240Q135 80 135 68Q135 26 162 26Q197 26 230 60T283 144Q285 150 288 151T303 153H307Q322 153 322 145Q322 142 319 133Q314 117 301 95T267 48T216 6T155 -11Q125 -11 98 4T59 56Q57 64 57 83V101L92 241Q127 382 128 383Q128 385 77 385H26Z"></path>
<path stroke-width="1" id="E1-MJMAIN-3D" d="M56 347Q56 360 70 367H707Q722 359 722 347Q722 336 708 328L390 327H72Q56 332 56 347ZM56 153Q56 168 72 173H708Q722 163 722 153Q722 140 707 133H70Q56 140 56 153Z"></path>
<path stroke-width="1" id="E1-MJMAIN-31" d="M213 578L200 573Q186 568 160 563T102 556H83V602H102Q149 604 189 617T245 641T273 663Q275 666 285 666Q294 666 302 660V361L303 61Q310 54 315 52T339 48T401 46H427V0H416Q395 3 257 3Q121 3 100 0H88V46H114Q136 46 152 46T177 47T193 50T201 52T207 57T213 61V578Z"></path>
<path stroke-width="1" id="E1-MJMAIN-2192" d="M56 237T56 250T70 270H835Q719 357 692 493Q692 494 692 496T691 499Q691 511 708 511H711Q720 511 723 510T729 506T732 497T735 481T743 456Q765 389 816 336T935 261Q944 258 944 250Q944 244 939 241T915 231T877 212Q836 186 806 152T761 85T740 35T732 4Q730 -6 727 -8T711 -11Q691 -11 691 0Q691 7 696 25Q728 151 835 230H70Q56 237 56 250Z"></path>
<path stroke-width="1" id="E1-MJMATHI-54" d="M40 437Q21 437 21 445Q21 450 37 501T71 602L88 651Q93 669 101 677H569H659Q691 677 697 676T704 667Q704 661 687 553T668 444Q668 437 649 437Q640 437 637 437T631 442L629 445Q629 451 635 490T641 551Q641 586 628 604T573 629Q568 630 515 631Q469 631 457 630T439 622Q438 621 368 343T298 60Q298 48 386 46Q418 46 427 45T436 36Q436 31 433 22Q429 4 424 1L422 0Q419 0 415 0Q410 0 363 1T228 2Q99 2 64 0H49Q43 6 43 9T45 27Q49 40 55 46H83H94Q174 46 189 55Q190 56 191 56Q196 59 201 76T241 233Q258 301 269 344Q339 619 339 625Q339 630 310 630H279Q212 630 191 624Q146 614 121 583T67 467Q60 445 57 441T43 437H40Z"></path>
<path stroke-width="1" id="E1-MJMAIN-3A" d="M78 370Q78 394 95 412T138 430Q162 430 180 414T199 371Q199 346 182 328T139 310T96 327T78 370ZM78 60Q78 84 95 102T138 120Q162 120 180 104T199 61Q199 36 182 18T139 0T96 17T78 60Z"></path>
<path stroke-width="1" id="E1-MJMATHI-3B8" d="M35 200Q35 302 74 415T180 610T319 704Q320 704 327 704T339 705Q393 701 423 656Q462 596 462 495Q462 380 417 261T302 66T168 -10H161Q125 -10 99 10T60 63T41 130T35 200ZM383 566Q383 668 330 668Q294 668 260 623T204 521T170 421T157 371Q206 370 254 370L351 371Q352 372 359 404T375 484T383 566ZM113 132Q113 26 166 26Q181 26 198 36T239 74T287 161T335 307L340 324H145Q145 321 136 286T120 208T113 132Z"></path>
<path stroke-width="1" id="E1-MJMAIN-28" d="M94 250Q94 319 104 381T127 488T164 576T202 643T244 695T277 729T302 750H315H319Q333 750 333 741Q333 738 316 720T275 667T226 581T184 443T167 250T184 58T225 -81T274 -167T316 -220T333 -241Q333 -250 318 -250H315H302L274 -226Q180 -141 137 -14T94 250Z"></path>
<path stroke-width="1" id="E1-MJMAIN-2B" d="M56 237T56 250T70 270H369V420L370 570Q380 583 389 583Q402 583 409 568V270H707Q722 262 722 250T707 230H409V-68Q401 -82 391 -82H389H387Q375 -82 369 -68V230H70Q56 237 56 250Z"></path>
<path stroke-width="1" id="E1-MJMAIN-29" d="M60 749L64 750Q69 750 74 750H86L114 726Q208 641 251 514T294 250Q294 182 284 119T261 12T224 -76T186 -143T145 -194T113 -227T90 -246Q87 -249 86 -250H74Q66 -250 63 -250T58 -247T55 -238Q56 -237 66 -225Q221 -64 221 250T66 725Q56 737 55 738Q55 746 60 749Z"></path>
<path stroke-width="1" id="E1-MJMATHI-3F5" d="M227 -11Q149 -11 95 41T40 174Q40 262 87 322Q121 367 173 396T287 430Q289 431 329 431H367Q382 426 382 411Q382 385 341 385H325H312Q191 385 154 277L150 265H327Q340 256 340 246Q340 228 320 219H138V217Q128 187 128 143Q128 77 160 52T231 26Q258 26 284 36T326 57T343 68Q350 68 354 58T358 39Q358 36 357 35Q354 31 337 21T289 0T227 -11Z"></path>
<path stroke-width="1" id="E1-MJMAIN-394" d="M51 0Q46 4 46 7Q46 9 215 357T388 709Q391 716 416 716Q439 716 444 709Q447 705 616 357T786 7Q786 4 781 0H51ZM507 344L384 596L137 92L383 91H630Q630 93 507 344Z"></path>
<path stroke-width="1" id="E1-MJCAL-4C" d="M62 -22T47 -22T32 -11Q32 -1 56 24T83 55Q113 96 138 172T180 320T234 473T323 609Q364 649 419 677T531 705Q559 705 578 696T604 671T615 645T618 623V611Q618 582 615 571T598 548Q581 531 558 520T518 509Q503 509 503 520Q503 523 505 536T507 560Q507 590 494 610T452 630Q423 630 410 617Q367 578 333 492T271 301T233 170Q211 123 204 112L198 103L224 102Q281 102 369 79T509 52H523Q535 64 544 87T579 128Q616 152 641 152Q656 152 656 142Q656 101 588 40T433 -22Q381 -22 289 1T156 28L141 29L131 20Q111 0 87 -11Z"></path>
<path stroke-width="1" id="E1-MJMAIN-2C" d="M78 35T78 60T94 103T137 121Q165 121 187 96T210 8Q210 -27 201 -60T180 -117T154 -158T130 -185T117 -194Q113 -194 104 -185T95 -172Q95 -168 106 -156T131 -126T157 -76T173 -3V9L172 8Q170 7 167 6T161 3T152 1T140 0Q113 0 96 17Z"></path>
<path stroke-width="1" id="E1-MJMATHI-44" d="M287 628Q287 635 230 637Q207 637 200 638T193 647Q193 655 197 667T204 682Q206 683 403 683Q570 682 590 682T630 676Q702 659 752 597T803 431Q803 275 696 151T444 3L430 1L236 0H125H72Q48 0 41 2T33 11Q33 13 36 25Q40 41 44 43T67 46Q94 46 127 49Q141 52 146 61Q149 65 218 339T287 628ZM703 469Q703 507 692 537T666 584T629 613T590 629T555 636Q553 636 541 636T512 636T479 637H436Q392 637 386 627Q384 623 313 339T242 52Q242 48 253 48T330 47Q335 47 349 47T373 46Q499 46 581 128Q617 164 640 212T683 339T703 469Z"></path>
</defs>
<g stroke="currentColor" fill="currentColor" stroke-width="0" transform="matrix(1 0 0 -1 0 0)">
 <use transform="scale(1.2)" xlink:href="#E1-MJMAIN-66"></use>
 <use transform="scale(1.2)" xlink:href="#E1-MJMAIN-6F" x="306" y="0"></use>
 <use transform="scale(1.2)" xlink:href="#E1-MJMAIN-72" x="807" y="0"></use>
 <use transform="scale(1.2)" xlink:href="#E1-MJMATHI-74" x="1407" y="0"></use>
 <use transform="scale(1.2)" xlink:href="#E1-MJMAIN-3D" x="2047" y="0"></use>
 <use transform="scale(1.2)" xlink:href="#E1-MJMAIN-31" x="3103" y="0"></use>
 <use transform="scale(1.2)" xlink:href="#E1-MJMAIN-2192" x="3881" y="0"></use>
 <use transform="scale(1.2)" xlink:href="#E1-MJMATHI-54" x="5159" y="0"></use>
 <use transform="scale(1.2)" xlink:href="#E1-MJMAIN-3A" x="6142" y="0"></use>
<g transform="translate(8038,0)">
 <use transform="scale(1.2)" xlink:href="#E1-MJMATHI-3B8" x="0" y="0"></use>
<g transform="translate(563,519)">
 <use transform="scale(0.849)" xlink:href="#E1-MJMAIN-28" x="0" y="0"></use>
 <use transform="scale(0.849)" xlink:href="#E1-MJMATHI-74" x="389" y="0"></use>
 <use transform="scale(0.849)" xlink:href="#E1-MJMAIN-2B" x="751" y="0"></use>
 <use transform="scale(0.849)" xlink:href="#E1-MJMAIN-31" x="1529" y="0"></use>
 <use transform="scale(0.849)" xlink:href="#E1-MJMAIN-29" x="2029" y="0"></use>
</g>
</g>
 <use transform="scale(1.2)" xlink:href="#E1-MJMAIN-3D" x="9256" y="0"></use>
<g transform="translate(12375,0)">
 <use transform="scale(1.2)" xlink:href="#E1-MJMATHI-3B8" x="0" y="0"></use>
<g transform="translate(563,519)">
 <use transform="scale(0.849)" xlink:href="#E1-MJMAIN-28" x="0" y="0"></use>
 <use transform="scale(0.849)" xlink:href="#E1-MJMATHI-74" x="389" y="0"></use>
 <use transform="scale(0.849)" xlink:href="#E1-MJMAIN-29" x="751" y="0"></use>
</g>
</g>
 <use transform="scale(1.2)" xlink:href="#E1-MJMAIN-2B" x="11911" y="0"></use>
 <use transform="scale(1.2)" xlink:href="#E1-MJMATHI-3F5" x="12911" y="0"></use>
<g transform="translate(15981,0)">
 <use transform="scale(1.2)" xlink:href="#E1-MJMAIN-394" x="0" y="0"></use>
 <use transform="scale(0.849)" xlink:href="#E1-MJCAL-4C" x="1178" y="-219"></use>
</g>
 <use transform="scale(1.2)" xlink:href="#E1-MJMAIN-28" x="14740" y="0"></use>
<g transform="translate(18155,0)">
 <use transform="scale(1.2)" xlink:href="#E1-MJMATHI-3B8" x="0" y="0"></use>
<g transform="translate(563,519)">
 <use transform="scale(0.849)" xlink:href="#E1-MJMAIN-28" x="0" y="0"></use>
 <use transform="scale(0.849)" xlink:href="#E1-MJMATHI-74" x="389" y="0"></use>
 <use transform="scale(0.849)" xlink:href="#E1-MJMAIN-29" x="751" y="0"></use>
</g>
</g>
 <use transform="scale(1.2)" xlink:href="#E1-MJMAIN-2C" x="16505" y="0"></use>
<g transform="translate(20340,0)">
 <use transform="scale(1.2)" xlink:href="#E1-MJMATHI-44" x="0" y="0"></use>
<g transform="translate(994,495)">
 <use transform="scale(0.849)" xlink:href="#E1-MJMAIN-28" x="0" y="0"></use>
 <use transform="scale(0.849)" xlink:href="#E1-MJMATHI-74" x="389" y="0"></use>
 <use transform="scale(0.849)" xlink:href="#E1-MJMAIN-29" x="751" y="0"></use>
</g>
</g>
 <use transform="scale(1.2)" xlink:href="#E1-MJMAIN-29" x="18685" y="0"></use>
</g>
</svg>